<svg id="svg" version="1.1" width="400" height="400" viewBox="0 0 400 400" xmlns="http://www.w3.org/2000/svg" xmlns:xlink="http://www.w3.org/1999/xlink" ><g id="svgg"><path id="path0" d="M227.366 130.300 C 226.114 132.665,224.034 136.540,222.744 138.912 C 221.455 141.284,220.400 143.287,220.400 143.363 C 220.400 143.440,219.617 144.920,218.661 146.651 C 217.704 148.383,215.337 152.770,213.399 156.400 C 204.515 173.048,199.551 182.224,193.587 193.022 C 190.785 198.093,187.815 203.538,186.986 205.122 C 185.141 208.643,185.298 208.654,183.625 204.892 C 179.416 195.431,176.704 189.117,172.760 179.600 C 170.345 173.770,167.943 168.010,167.424 166.800 C 166.528 164.714,162.938 155.666,158.456 144.200 C 157.338 141.340,155.714 137.200,154.848 135.000 L 153.274 131.000 119.437 130.898 C 96.236 130.828,85.600 130.926,85.600 131.211 C 85.600 131.440,86.029 132.476,86.553 133.513 C 87.721 135.824,95.287 152.416,96.808 156.000 C 97.414 157.430,98.934 160.940,100.184 163.800 C 102.684 169.518,109.603 186.009,112.015 191.996 C 112.858 194.088,114.459 198.005,115.574 200.700 C 116.688 203.395,118.475 207.715,119.543 210.300 C 121.181 214.260,123.522 219.948,130.615 237.200 C 131.112 238.410,132.888 242.775,134.560 246.900 C 136.232 251.025,138.969 257.775,140.642 261.900 C 142.315 266.025,144.546 271.560,145.600 274.200 C 149.594 284.209,151.495 288.829,151.707 289.040 C 151.828 289.161,153.227 286.681,154.816 283.530 C 157.556 278.099,159.095 275.167,161.604 270.600 C 162.208 269.500,163.600 266.890,164.697 264.800 C 165.794 262.710,168.070 258.426,169.755 255.280 C 171.440 252.133,173.744 247.813,174.876 245.680 C 176.008 243.546,177.714 240.383,178.667 238.651 C 179.620 236.920,180.400 235.438,180.400 235.359 C 180.400 235.281,182.807 230.848,185.748 225.508 C 188.689 220.169,191.974 214.173,193.048 212.185 C 199.422 200.384,198.695 201.194,200.299 204.100 C 200.936 205.255,201.872 206.920,202.379 207.800 C 204.176 210.920,219.722 238.637,220.999 241.000 C 222.530 243.829,230.302 258.453,237.900 272.800 C 245.128 286.449,246.477 288.971,246.645 289.161 C 246.724 289.249,247.222 288.349,247.751 287.161 C 249.239 283.822,255.212 270.346,255.801 269.000 C 257.404 265.336,266.711 244.181,267.416 242.600 C 267.710 241.940,269.138 238.700,270.589 235.400 C 272.041 232.100,273.394 229.040,273.596 228.600 C 273.799 228.160,275.030 225.370,276.333 222.400 C 279.426 215.346,285.213 202.197,293.410 183.600 C 295.107 179.750,297.892 173.450,299.600 169.600 C 317.067 130.218,316.607 131.563,313.258 129.681 C 311.199 128.524,308.485 128.504,307.046 129.635 C 305.479 130.868,304.893 132.181,299.748 146.000 C 298.236 150.061,298.080 150.463,293.403 162.400 C 288.896 173.902,284.151 185.690,278.912 198.400 C 278.141 200.270,277.105 202.790,276.609 204.000 C 274.793 208.427,274.745 208.499,274.139 207.635 C 272.476 205.260,257.821 179.561,253.020 170.600 C 247.480 160.260,239.285 144.451,231.819 129.700 C 229.555 125.227,230.091 125.155,227.366 130.300 " stroke="none" fill="#fbfbfb" fill-rule="evenodd"></path><path id="path1" d="M184.800 36.013 C 180.100 36.285,173.677 37.232,166.800 38.667 C 165.150 39.011,162.900 39.476,161.800 39.701 C 159.184 40.235,153.623 41.789,150.600 42.831 C 149.280 43.287,147.390 43.895,146.400 44.184 C 144.056 44.867,140.236 46.276,138.122 47.237 C 137.199 47.657,136.237 48.000,135.984 48.000 C 135.731 48.000,135.046 48.258,134.462 48.573 C 133.878 48.889,131.960 49.796,130.200 50.591 C 128.440 51.385,126.730 52.180,126.400 52.356 C 118.401 56.638,115.402 58.319,113.135 59.790 C 112.109 60.455,110.409 61.540,109.357 62.200 C 108.306 62.860,107.059 63.670,106.586 64.000 C 106.114 64.330,105.021 65.071,104.158 65.646 C 103.295 66.221,102.344 66.986,102.045 67.346 C 101.746 67.706,101.263 68.000,100.971 68.000 C 100.679 68.000,100.296 68.225,100.120 68.500 C 99.944 68.775,98.630 69.889,97.200 70.975 C 94.436 73.074,94.100 73.349,92.163 75.089 C 84.033 82.390,83.246 83.152,79.000 87.834 C 77.460 89.532,75.705 91.384,75.100 91.950 C 74.495 92.515,74.000 93.208,74.000 93.489 C 74.000 93.770,73.834 94.000,73.630 94.000 C 73.221 94.000,67.615 101.133,64.828 105.200 C 63.848 106.630,62.811 108.038,62.523 108.329 C 62.235 108.619,62.000 109.114,62.000 109.429 C 62.000 109.743,61.849 110.000,61.664 110.000 C 61.479 110.000,60.839 110.855,60.243 111.900 C 59.647 112.945,58.603 114.700,57.923 115.800 C 55.357 119.951,51.453 127.456,48.978 133.000 C 48.486 134.100,47.615 136.039,47.042 137.309 C 46.469 138.579,45.999 139.839,45.998 140.109 C 45.996 140.379,45.743 141.083,45.435 141.674 C 44.387 143.682,40.471 155.839,39.982 158.600 C 39.826 159.480,39.327 161.640,38.872 163.400 C 33.470 184.311,33.537 217.114,39.024 237.897 C 39.561 239.931,40.000 241.945,40.000 242.373 C 40.000 242.802,40.450 244.400,41.000 245.925 C 41.550 247.449,42.000 248.941,42.000 249.240 C 42.000 249.539,42.461 251.047,43.025 252.592 C 43.589 254.136,44.510 256.660,45.072 258.200 C 46.646 262.516,48.624 267.170,50.853 271.800 C 52.080 274.351,56.699 282.955,57.617 284.400 C 57.826 284.730,58.673 286.101,59.499 287.448 C 61.432 290.600,64.830 295.742,65.151 296.000 C 65.288 296.110,66.022 297.100,66.783 298.200 C 69.127 301.591,77.655 311.577,82.036 316.063 C 85.993 320.114,87.907 321.884,92.777 326.000 C 93.949 326.990,95.203 328.070,95.564 328.400 C 95.925 328.730,97.835 330.214,99.810 331.697 C 101.784 333.181,103.605 334.564,103.856 334.772 C 104.269 335.114,113.520 341.127,115.411 342.282 C 118.001 343.865,125.850 348.028,128.400 349.173 C 130.050 349.913,131.580 350.652,131.800 350.814 C 132.469 351.308,143.164 355.478,147.000 356.741 C 184.481 369.080,225.459 367.896,261.600 353.430 C 265.821 351.741,267.135 351.158,272.383 348.652 C 274.146 347.809,282.665 343.214,284.189 342.282 C 291.797 337.633,301.890 330.488,305.615 327.114 C 306.032 326.736,307.774 325.231,309.486 323.769 C 316.805 317.520,334.000 298.354,334.000 296.445 C 334.000 296.237,334.149 296.007,334.330 295.933 C 335.923 295.291,346.598 276.937,350.488 268.153 C 356.525 254.521,359.946 243.242,362.788 227.600 C 365.078 214.997,365.452 191.574,363.578 178.200 C 361.582 163.966,358.180 151.350,352.441 136.909 C 351.666 134.958,348.372 127.742,347.644 126.400 C 347.465 126.070,346.456 124.180,345.401 122.200 C 344.346 120.220,343.149 118.122,342.742 117.538 C 342.334 116.954,342.000 116.341,342.000 116.176 C 342.000 116.011,341.550 115.286,341.000 114.564 C 340.450 113.843,340.000 113.155,340.000 113.034 C 340.000 112.808,337.309 108.518,336.719 107.805 C 336.535 107.582,335.219 105.780,333.795 103.800 C 326.893 94.205,319.833 86.244,311.802 79.000 C 310.094 77.460,308.406 75.905,308.049 75.543 C 306.860 74.340,298.759 68.000,298.410 68.000 C 298.221 68.000,298.007 67.854,297.933 67.675 C 297.816 67.389,294.492 64.909,292.740 63.800 C 292.392 63.580,291.049 62.687,289.754 61.815 C 288.459 60.942,287.040 60.026,286.600 59.777 C 286.160 59.528,284.810 58.732,283.600 58.007 C 282.390 57.283,279.760 55.832,277.755 54.783 C 275.750 53.734,273.770 52.685,273.355 52.453 C 271.989 51.689,264.812 48.401,263.291 47.843 C 262.471 47.542,260.270 46.721,258.400 46.019 C 252.438 43.781,240.337 39.995,239.177 40.005 C 238.860 40.007,236.710 39.568,234.400 39.028 C 221.205 35.944,204.017 34.899,184.800 36.013 M231.819 129.700 C 239.285 144.451,247.480 160.260,253.020 170.600 C 257.821 179.561,272.476 205.260,274.139 207.635 C 274.745 208.499,274.793 208.427,276.609 204.000 C 277.105 202.790,278.141 200.270,278.912 198.400 C 284.151 185.690,288.896 173.902,293.403 162.400 C 298.080 150.463,298.236 150.061,299.748 146.000 C 304.893 132.181,305.479 130.868,307.046 129.635 C 309.205 127.937,314.477 129.174,315.065 131.517 C 315.476 133.153,313.614 137.991,305.719 155.800 C 304.061 159.540,301.308 165.750,299.600 169.600 C 297.892 173.450,295.107 179.750,293.410 183.600 C 285.213 202.197,279.426 215.346,276.333 222.400 C 275.030 225.370,273.799 228.160,273.596 228.600 C 273.394 229.040,272.041 232.100,270.589 235.400 C 269.138 238.700,267.710 241.940,267.416 242.600 C 266.711 244.181,257.404 265.336,255.801 269.000 C 255.212 270.346,249.239 283.822,247.751 287.161 C 247.222 288.349,246.724 289.249,246.645 289.161 C 246.477 288.971,245.128 286.449,237.900 272.800 C 230.302 258.453,222.530 243.829,220.999 241.000 C 219.722 238.637,204.176 210.920,202.379 207.800 C 201.872 206.920,200.936 205.255,200.299 204.100 C 198.695 201.194,199.422 200.384,193.048 212.185 C 191.974 214.173,188.689 220.169,185.748 225.508 C 182.807 230.848,180.400 235.281,180.400 235.359 C 180.400 235.438,179.620 236.920,178.667 238.651 C 177.714 240.383,176.008 243.546,174.876 245.680 C 173.744 247.813,171.440 252.133,169.755 255.280 C 168.070 258.426,165.794 262.710,164.697 264.800 C 163.600 266.890,162.208 269.500,161.604 270.600 C 159.095 275.167,157.556 278.099,154.816 283.530 C 153.227 286.681,151.828 289.161,151.707 289.040 C 151.495 288.829,149.594 284.209,145.600 274.200 C 144.546 271.560,142.315 266.025,140.642 261.900 C 138.969 257.775,136.232 251.025,134.560 246.900 C 132.888 242.775,131.112 238.410,130.615 237.200 C 123.522 219.948,121.181 214.260,119.543 210.300 C 118.475 207.715,116.688 203.395,115.574 200.700 C 114.459 198.005,112.858 194.088,112.015 191.996 C 109.603 186.009,102.684 169.518,100.184 163.800 C 98.934 160.940,97.414 157.430,96.808 156.000 C 95.287 152.416,87.721 135.824,86.553 133.513 C 86.029 132.476,85.600 131.440,85.600 131.211 C 85.600 130.926,96.236 130.828,119.437 130.898 L 153.274 131.000 154.848 135.000 C 155.714 137.200,157.338 141.340,158.456 144.200 C 162.938 155.666,166.528 164.714,167.424 166.800 C 167.943 168.010,170.345 173.770,172.760 179.600 C 176.704 189.117,179.416 195.431,183.625 204.892 C 185.298 208.654,185.141 208.643,186.986 205.122 C 187.815 203.538,190.785 198.093,193.587 193.022 C 199.551 182.224,204.515 173.048,213.399 156.400 C 215.337 152.770,217.704 148.383,218.661 146.651 C 219.617 144.920,220.400 143.440,220.400 143.363 C 220.400 143.287,221.455 141.284,222.744 138.912 C 224.034 136.540,226.114 132.665,227.366 130.300 C 230.091 125.155,229.555 125.227,231.819 129.700 " stroke="none" fill="#d404c3" fill-rule="evenodd"></path></g></svg>